<svg width="227" height="200" viewBox="0 0 227 200" fill="none" xmlns="http://www.w3.org/2000/svg">
<path d="M85.9709 53V48H80.9709V53H85.9709ZM85.9709 74.42H80.9709V79.42H85.9709V74.42ZM104.171 74.42H109.171V69.42H104.171V74.42ZM104.171 151H99.1709V156H104.171V151ZM131.891 151V156H136.891V151H131.891ZM131.891 53H136.891V48H131.891V53ZM80.9709 53V74.42H90.9709V53H80.9709ZM85.9709 79.42H104.171V69.42H85.9709V79.42ZM99.1709 74.42V151H109.171V74.42H99.1709ZM104.171 156H131.891V146H104.171V156ZM136.891 151V53H126.891V151H136.891ZM131.891 48H85.9709V58H131.891V48Z" fill="#C1EDD2"/>
<rect x="1.5" y="1.5" width="224" height="197" rx="38.5" stroke="#C1EDD2" stroke-width="3"/>
</svg>
