<svg width="227" height="200" viewBox="0 0 227 200" fill="none" xmlns="http://www.w3.org/2000/svg">
<path d="M113.796 129.02L110.402 125.348L101.019 134.02H113.796V129.02ZM132.276 111.94L128.89 108.26L128.882 108.268L132.276 111.94ZM70.2557 71.48L65.9725 68.9004L63.3056 73.3284L67.8199 75.8466L70.2557 71.48ZM90.8357 82.96L88.3999 87.3266L92.5627 89.6487L95.081 85.6015L90.8357 82.96ZM111.976 99.34L108.573 95.676L108.567 95.682L108.561 95.688L111.976 99.34ZM75.2957 133.64L71.8806 129.988L70.2957 131.47V133.64H75.2957ZM75.2957 151H70.2957V156H75.2957V151ZM151.596 151V156H156.596V151H151.596ZM151.596 129.02H156.596V124.02H151.596V129.02ZM117.189 132.692L135.669 115.612L128.882 108.268L110.402 125.348L117.189 132.692ZM135.661 115.62C142.932 108.93 147.57 103.052 150.353 97.3252C153.182 91.5026 153.936 86.1598 153.936 80.86H143.936C143.936 85.0802 143.359 88.8373 141.359 92.9547C139.311 97.1682 135.62 102.07 128.89 108.26L135.661 115.62ZM153.936 80.86C153.936 70.183 149.311 61.278 141.406 55.1688C133.616 49.1486 122.931 46.04 110.856 46.04V56.04C121.32 56.04 129.675 58.7414 135.291 63.0812C140.791 67.332 143.936 73.337 143.936 80.86H153.936ZM110.856 46.04C90.0291 46.04 74.4176 54.8784 65.9725 68.9004L74.5389 74.0596C80.9338 63.4416 93.0423 56.04 110.856 56.04V46.04ZM67.8199 75.8466L88.3999 87.3266L93.2715 78.5934L72.6915 67.1134L67.8199 75.8466ZM95.081 85.6015C98.0168 80.8832 102.783 78.44 108.336 78.44V68.44C99.6081 68.44 91.4946 72.4368 86.5904 80.3185L95.081 85.6015ZM108.336 78.44C111.876 78.44 113.722 79.247 114.604 79.9744C115.334 80.5771 115.936 81.5546 115.936 83.52H125.936C125.936 79.1854 124.437 75.1229 120.968 72.2606C117.649 69.523 113.196 68.44 108.336 68.44V78.44ZM115.936 83.52C115.936 84.9766 115.756 86.3102 114.917 87.9988C114.019 89.809 112.234 92.2769 108.573 95.676L115.378 103.004C119.557 99.1231 122.253 95.711 123.874 92.4462C125.556 89.0597 125.936 86.1234 125.936 83.52H115.936ZM108.561 95.688L71.8806 129.988L78.7108 137.292L115.391 102.992L108.561 95.688ZM70.2957 133.64V151H80.2957V133.64H70.2957ZM75.2957 156H151.596V146H75.2957V156ZM156.596 151V129.02H146.596V151H156.596ZM151.596 124.02H113.796V134.02H151.596V124.02Z" fill="#5D9372"/>
<rect x="1.5" y="1.5" width="224" height="197" rx="38.5" stroke="#71B18A" stroke-width="3"/>
</svg>
