<svg width="227" height="200" viewBox="0 0 227 200" fill="none" xmlns="http://www.w3.org/2000/svg">
<path d="M105.34 88.7L100.36 88.2605L99.8799 93.7H105.34V88.7ZM106.6 74.42V69.42H102.022L101.62 73.9805L106.6 74.42ZM146.08 74.42V79.42H151.08V74.42H146.08ZM146.08 53H151.08V48H146.08V53ZM83.6405 53V48H79.0501L78.6587 52.5737L83.6405 53ZM78.7405 110.26L73.7587 109.834L73.2943 115.26H78.7405V110.26ZM81.5405 122.44L84.314 118.28L79.5102 115.077L77.0267 120.289L81.5405 122.44ZM71.6005 143.3L67.0867 141.149L65.1801 145.15L68.9238 147.523L71.6005 143.3ZM111.92 83.7H105.34V93.7H111.92V83.7ZM110.321 89.1395L111.581 74.8595L101.62 73.9805L100.36 88.2605L110.321 89.1395ZM106.6 79.42H146.08V69.42H106.6V79.42ZM151.08 74.42V53H141.08V74.42H151.08ZM146.08 48H83.6405V58H146.08V48ZM78.6587 52.5737L73.7587 109.834L83.7223 110.686L88.6223 53.4263L78.6587 52.5737ZM78.7405 115.26H105.34V105.26H78.7405V115.26ZM105.34 115.26C112.617 115.26 116.228 116.254 117.905 117.26C118.626 117.693 118.905 118.077 119.051 118.366C119.219 118.698 119.38 119.247 119.38 120.2H129.38C129.38 118.143 129.034 115.945 127.973 113.849C126.89 111.709 125.217 109.985 123.05 108.685C118.953 106.226 113.044 105.26 105.34 105.26V115.26ZM119.38 120.2C119.38 121.618 118.82 122.698 117.353 123.642C115.683 124.716 112.815 125.56 108.7 125.56V135.56C113.966 135.56 118.938 134.514 122.763 132.053C126.791 129.462 129.38 125.362 129.38 120.2H119.38ZM108.7 125.56C100.26 125.56 91.4341 123.027 84.314 118.28L78.767 126.6C87.6068 132.493 98.3807 135.56 108.7 135.56V125.56ZM77.0267 120.289L67.0867 141.149L76.1142 145.451L86.0542 124.591L77.0267 120.289ZM68.9238 147.523C79.8762 154.465 95.2994 157.96 109.54 157.96V147.96C96.6215 147.96 83.2047 144.735 74.2771 139.077L68.9238 147.523ZM109.54 157.96C125.193 157.96 137.159 153.723 145.281 146.537C153.435 139.323 157.24 129.544 157.24 119.5H147.24C147.24 126.956 144.466 133.907 138.655 139.048C132.811 144.217 123.428 147.96 109.54 147.96V157.96ZM157.24 119.5C157.24 109.686 153.993 100.466 146.2 93.7923C138.519 87.2145 127.105 83.7 111.92 83.7V93.7C125.716 93.7 134.462 96.9055 139.696 101.388C144.818 105.774 147.24 111.954 147.24 119.5H157.24Z" fill="#C1EDD2"/>
<rect x="1.5" y="1.5" width="224" height="197" rx="38.5" stroke="#C1EDD2" stroke-width="3"/>
</svg>
