<svg width="227" height="200" viewBox="0 0 227 200" fill="none" xmlns="http://www.w3.org/2000/svg">
<path d="M126.342 92.2L122.68 88.7959L116.67 95.2618L125.306 97.0914L126.342 92.2ZM146.642 70.36L150.305 73.7641L151.642 72.3249V70.36H146.642ZM146.642 53H151.642V48H146.642V53ZM75.8023 53V48H70.8023V53H75.8023ZM75.8023 74.42H70.8023V79.42H75.8023V74.42ZM114.442 74.42L118.111 77.817L125.886 69.42H114.442V74.42ZM96.9423 93.32L93.2735 89.923L91.9423 91.3606V93.32H96.9423ZM96.9423 110.82H91.9423V115.82H96.9423V110.82ZM80.8423 122.44L83.6498 118.303L78.8592 115.052L76.3403 120.265L80.8423 122.44ZM70.7623 143.3L66.2603 141.125L64.3089 145.163L68.1123 147.54L70.7623 143.3ZM130.005 95.6041L150.305 73.7641L142.98 66.9559L122.68 88.7959L130.005 95.6041ZM151.642 70.36V53H141.642V70.36H151.642ZM146.642 48H75.8023V58H146.642V48ZM70.8023 53V74.42H80.8023V53H70.8023ZM75.8023 79.42H114.442V69.42H75.8023V79.42ZM110.773 71.023L93.2735 89.923L100.611 96.717L118.111 77.817L110.773 71.023ZM91.9423 93.32V110.82H101.942V93.32H91.9423ZM96.9423 115.82H108.562V105.82H96.9423V115.82ZM108.562 115.82C113.466 115.82 116.023 116.687 117.227 117.507C118.092 118.096 118.542 118.819 118.542 120.34H128.542C128.542 115.981 126.823 111.944 122.857 109.243C119.232 106.773 114.298 105.82 108.562 105.82V115.82ZM118.542 120.34C118.542 121.788 117.991 122.814 116.598 123.704C114.977 124.739 112.15 125.56 108.002 125.56V135.56C113.235 135.56 118.177 134.561 121.981 132.131C126.014 129.556 128.542 125.472 128.542 120.34H118.542ZM108.002 125.56C99.6718 125.56 90.5887 123.011 83.6498 118.303L78.0348 126.577C86.7758 132.509 97.8528 135.56 108.002 135.56V125.56ZM76.3403 120.265L66.2603 141.125L75.2642 145.475L85.3442 124.615L76.3403 120.265ZM68.1123 147.54C79.1864 154.461 94.5921 157.96 108.842 157.96V147.96C95.9325 147.96 82.4982 144.739 73.4123 139.06L68.1123 147.54ZM108.842 157.96C124.497 157.96 136.442 153.722 144.551 146.67C152.689 139.593 156.542 130.031 156.542 120.34H146.542C146.542 127.309 143.816 134.057 137.989 139.125C132.132 144.218 122.728 147.96 108.842 147.96V157.96ZM156.542 120.34C156.542 112.262 154.016 104.896 148.903 99.0429C143.814 93.2186 136.467 89.2341 127.379 87.3086L125.306 97.0914C132.738 98.6659 137.99 101.751 141.372 105.622C144.728 109.464 146.542 114.418 146.542 120.34H156.542Z" fill="#C1EDD2"/>
<rect x="1.5" y="1.5" width="224" height="197" rx="38.5" stroke="#C1EDD2" stroke-width="3"/>
</svg>
