<svg width="227" height="200" viewBox="0 0 227 200" fill="none" xmlns="http://www.w3.org/2000/svg">
<path d="M161.646 110.26H166.646V105.26H161.646V110.26ZM147.086 110.26H142.086V115.26H147.086V110.26ZM147.086 93.6H152.086V88.6H147.086V93.6ZM120.906 93.6V88.6H115.906V93.6H120.906ZM120.906 110.26V115.26H125.906V110.26H120.906ZM101.026 110.26L96.9241 107.401L91.448 115.26H101.026V110.26ZM140.926 53L145.029 55.8585L150.505 48H140.926V53ZM112.226 53V48H109.662L108.166 50.0824L112.226 53ZM68.2663 114.18L64.2058 111.262L63.2663 112.57V114.18H68.2663ZM68.2663 132.24H63.2663V137.24H68.2663V132.24ZM120.066 132.24H125.066V127.24H120.066V132.24ZM120.066 151H115.066V156H120.066V151ZM147.086 151V156H152.086V151H147.086ZM147.086 132.24V127.24H142.086V132.24H147.086ZM161.646 132.24V137.24H166.646V132.24H161.646ZM161.646 105.26H147.086V115.26H161.646V105.26ZM152.086 110.26V93.6H142.086V110.26H152.086ZM147.086 88.6H120.906V98.6H147.086V88.6ZM115.906 93.6V110.26H125.906V93.6H115.906ZM120.906 105.26H101.026V115.26H120.906V105.26ZM105.129 113.119L145.029 55.8585L136.824 50.1414L96.9241 107.401L105.129 113.119ZM140.926 48H112.226V58H140.926V48ZM108.166 50.0824L64.2058 111.262L72.3268 117.098L116.287 55.9176L108.166 50.0824ZM63.2663 114.18V132.24H73.2663V114.18H63.2663ZM68.2663 137.24H120.066V127.24H68.2663V137.24ZM115.066 132.24V151H125.066V132.24H115.066ZM120.066 156H147.086V146H120.066V156ZM152.086 151V132.24H142.086V151H152.086ZM147.086 137.24H161.646V127.24H147.086V137.24ZM166.646 132.24V110.26H156.646V132.24H166.646Z" fill="#5D9372"/>
<rect x="1.5" y="1.5" width="224" height="197" rx="38.5" stroke="#71B18A" stroke-width="3"/>
</svg>
