<svg width="26" height="26" viewBox="0 0 26 26" fill="none" xmlns="http://www.w3.org/2000/svg">
<path d="M13.328 17.8594C16.193 17.8594 18.5156 15.5368 18.5156 12.6719C18.5156 9.80691 16.193 7.48438 13.328 7.48438C10.4631 7.48438 8.14053 9.80691 8.14053 12.6719C8.14053 15.5368 10.4631 17.8594 13.328 17.8594Z" stroke="#C1EDD2" stroke-width="2" stroke-linecap="round" stroke-linejoin="round"/>
<path d="M1.65613 17.8594V7.4844C1.65613 3.90317 4.5593 1 8.14053 1H18.5156C22.0968 1 25 3.90317 25 7.4844V17.8594C25 21.4406 22.0968 24.3438 18.5156 24.3438H8.14053C4.5593 24.3438 1.65613 21.4406 1.65613 17.8594Z" stroke="#C1EDD2" stroke-width="2"/>
<path d="M20.4609 5.55365L20.4749 5.53809" stroke="#C1EDD2" stroke-width="2" stroke-linecap="round" stroke-linejoin="round"/>
</svg>
