<svg width="233" height="40" viewBox="0 0 233 40" fill="none" xmlns="http://www.w3.org/2000/svg">
<g clip-path="url(#clip0_20_127)">
<path d="M0 22.4931C0 15.5165 5.26834 10.8101 12.017 10.8101C17.625 10.8101 20.5248 13.8924 22.0138 16.8699L17.0154 19.2362C16.2753 17.4374 14.3508 15.953 12.017 15.953C8.50772 15.953 5.90403 18.7996 5.90403 22.4844C5.90403 26.1692 8.50772 29.0157 12.017 29.0157C14.3508 29.0157 16.2753 27.5226 17.0154 25.7326L22.0138 28.0989C20.5596 31.0065 17.625 34.1587 12.017 34.1587C5.26834 34.1587 0 29.4173 0 22.4756V22.4931Z" fill="white"/>
<path d="M23.2939 25.5756C23.2939 20.974 26.6378 17.0098 32.1761 17.0098C37.7143 17.0098 41.0931 20.974 41.0931 25.5756C41.0931 30.1772 37.784 34.1763 32.1761 34.1763C26.5681 34.1763 23.2939 30.1772 23.2939 25.5756ZM35.755 25.5756C35.755 23.4101 34.475 21.6114 32.1761 21.6114C29.8771 21.6114 28.6667 23.4014 28.6667 25.5756C28.6667 27.7498 29.912 29.5747 32.1761 29.5747C34.4401 29.5747 35.755 27.7847 35.755 25.5756Z" fill="white"/>
<path d="M43.8187 33.7659V17.4114H49.0173V19.4808C50.0971 18.1624 52.1609 17.0098 54.1115 17.0098V22.0567C53.8067 21.9519 53.3713 21.8908 52.8314 21.8908C51.4817 21.8908 49.6879 22.4671 49.0173 23.4188V33.7747H43.8187V33.7659Z" fill="white"/>
<path d="M61.6788 40.0004H56.4801V17.4202H61.6788V19.3149C62.9588 17.7607 64.6482 17.0098 66.503 17.0098C70.5871 17.0098 73.661 20.0571 73.661 25.5756C73.661 31.094 70.5871 34.1763 66.503 34.1763C64.683 34.1763 63.0285 33.4691 61.6788 31.8362V39.9916V40.0004ZM64.7875 21.6201C63.6729 21.6201 62.3232 22.2313 61.6788 23.1132V28.0903C62.3232 28.9373 63.6729 29.5834 64.7875 29.5834C66.8165 29.5834 68.3665 28.0554 68.3665 25.5843C68.3665 23.1132 66.8165 21.6201 64.7875 21.6201Z" fill="white"/>
<path d="M75.3242 25.5756C75.3242 20.974 78.6681 17.0098 84.2064 17.0098C89.7447 17.0098 93.1234 20.974 93.1234 25.5756C93.1234 30.1772 89.8143 34.1763 84.2064 34.1763C78.5984 34.1763 75.3242 30.1772 75.3242 25.5756ZM87.7854 25.5756C87.7854 23.4101 86.5053 21.6114 84.2064 21.6114C81.9074 21.6114 80.697 23.4014 80.697 25.5756C80.697 27.7498 81.9423 29.5747 84.2064 29.5747C86.4704 29.5747 87.7854 27.7847 87.7854 25.5756Z" fill="white"/>
<path d="M104.627 33.7658V11.1855H121.137V16.0928H110.435V19.8474H120.902V24.7896H110.435V33.757H104.627V33.7658Z" fill="white"/>
<path d="M124.141 33.7659V17.4114H129.34V19.4808C130.42 18.1624 132.484 17.0098 134.434 17.0098V22.0567C134.129 21.9519 133.694 21.8908 133.154 21.8908C131.804 21.8908 130.01 22.4671 129.34 23.4188V33.7747H124.141V33.7659Z" fill="white"/>
<path d="M144.396 17.0097C149.22 17.0097 152.738 20.5635 152.738 26.1169V27.2345H141.122C141.427 28.7539 142.846 30.1422 145.276 30.1422C146.73 30.1422 148.35 29.5659 149.264 28.7539L151.458 32.0021C149.839 33.4603 147.139 34.1675 144.64 34.1675C139.607 34.1675 135.723 30.8844 135.723 25.5668C135.723 20.8255 139.302 17.001 144.396 17.001V17.0097ZM141.052 23.8466H147.775C147.635 22.6941 146.799 21.035 144.396 21.035C142.132 21.035 141.252 22.6591 141.052 23.8466Z" fill="white"/>
<path d="M156.074 28.0815C157.293 29.1643 159.888 30.247 161.812 30.247C163.362 30.247 164.007 29.7406 164.007 29.0246C164.007 28.1776 162.892 27.872 161.203 27.6013C158.433 27.1298 154.515 26.5535 154.515 22.3884C154.515 19.507 156.979 17.001 161.507 17.001C164.242 17.001 166.575 17.8829 168.326 19.1664L166.332 22.6242C165.356 21.6724 163.493 20.8342 161.533 20.8342C160.314 20.8342 159.47 21.2359 159.47 21.9519C159.47 22.6679 160.349 22.9647 162.073 23.2703C164.842 23.7419 168.961 24.4229 168.961 28.7539C168.961 31.8711 166.227 34.1675 161.533 34.1675C158.634 34.1675 155.621 33.1896 153.905 31.6615L156.065 28.0728L156.074 28.0815Z" fill="white"/>
<path d="M182.711 33.7658V24.2569C182.711 22.2574 181.666 21.6199 180.012 21.6199C178.497 21.6199 177.478 22.4669 176.868 23.2091V33.7745H171.67V11.1855H176.868V19.4108C177.844 18.2582 179.768 17.0096 182.511 17.0096C186.221 17.0096 187.91 19.1052 187.91 22.1177V33.7658H182.711Z" fill="white"/>
<path d="M214.722 28.352C211.413 28.2734 208.635 27.2693 206.188 25.3134C205.97 25.1387 205.483 25.0689 205.256 25.1911C203.863 25.9333 202.365 26.3263 200.833 26.4048C199.074 26.5009 197.393 25.9683 195.817 25.1475C192.717 23.5408 191.35 20.7467 190.662 17.5334C190.183 15.2806 189.826 13.0017 189.504 10.7227C189.329 9.46531 189.321 8.18174 189.242 6.91564C189.181 5.95516 189.12 4.99467 189.094 4.02545C189.077 3.26579 189.704 2.76808 190.435 2.95144C193.892 3.83335 197.349 4.70652 200.798 5.64954C201.817 5.92896 202.783 6.42667 203.785 6.78467C203.976 6.85452 204.351 6.81086 204.464 6.67116C207.015 3.71984 210.368 2.15686 214.025 1.16144C216.908 0.375587 219.842 -0.0348033 222.838 0.00885525C224.527 0.0350504 226.216 -0.0522668 227.906 0.0263187C229.334 0.0961724 230.745 0.34066 232.164 0.515295C232.826 0.59388 233.061 1.0392 232.974 1.63295C232.721 3.3531 232.512 5.09071 232.147 6.78467C231.729 8.7493 231.25 10.7139 230.64 12.6262C229.299 16.7912 227.401 20.6681 224.327 23.8726C222.159 26.1342 219.546 27.5923 216.464 28.1686C215.828 28.2822 215.183 28.2909 214.722 28.3345V28.352ZM222.045 8.40004C222.045 8.46989 222.045 8.53101 222.037 8.60087C222.193 8.66199 222.35 8.70565 222.498 8.7755C223.743 9.39545 225.006 9.98048 226.225 10.6441C226.73 10.9235 226.826 11.657 226.53 12.0761C226.216 12.5214 225.642 12.5563 225.111 12.2856C223.926 11.6832 222.733 11.0719 221.497 10.5917C219.285 9.72726 217.43 10.4433 215.784 12.111C215.993 12.1809 216.159 12.242 216.333 12.2944C218.545 12.9056 220.243 14.2416 221.584 16.0752C221.915 16.5293 221.793 17.0182 221.392 17.3762C220.992 17.7255 220.539 17.6906 220.13 17.3588C219.955 17.2191 219.816 17.027 219.668 16.8523C218.275 15.202 216.559 14.1368 214.374 13.9359C213.416 13.8486 210.864 15.9006 210.673 16.9397C210.812 16.9571 210.951 16.9746 211.091 17.0008C211.23 17.027 211.369 17.0968 211.509 17.1143C213.947 17.3588 215.828 18.5725 217.317 20.476C217.709 20.9737 217.665 21.6373 217.273 21.9517C216.829 22.3097 216.185 22.2136 215.784 21.681C214.556 20.0394 212.876 19.2274 210.89 18.9829C210.472 18.9305 210.255 19.0353 210.046 19.4806C209.541 20.572 208.914 21.6111 208.295 22.6502C208.06 23.0519 207.712 23.3837 207.398 23.7591C209.245 25.3046 211.326 26.1691 213.633 26.335C216.585 26.5445 219.233 25.6277 221.54 23.7766C224.092 21.7246 225.842 19.0615 227.105 16.0927C228.063 13.8399 228.872 11.4998 229.534 9.14223C230.152 6.93311 230.483 4.6454 230.945 2.35769C229.813 2.24417 228.829 2.07827 227.836 2.05208C225.973 2.00842 224.109 1.95603 222.246 2.06081C220.278 2.17432 218.31 2.34896 216.368 2.69822C213.302 3.24832 210.403 4.2874 207.886 6.19964C207.233 6.69735 206.658 7.29984 205.979 7.91106C208.443 9.30813 209.724 11.395 210.385 13.9971C210.638 13.7613 210.812 13.6129 210.969 13.4557C211.134 13.2985 211.282 13.1152 211.456 12.958C213.024 11.5784 213.424 9.35179 212.484 7.52686C212.362 7.28238 212.353 6.85452 212.484 6.6275C212.919 5.87657 213.72 5.8853 214.217 6.6013C214.913 7.59672 215.122 8.74057 215.053 10.0241C215.845 9.52643 216.577 9.07238 217.291 8.6096C218.344 7.91979 218.919 6.87199 219.328 5.72813C219.433 5.44872 219.381 5.03832 219.241 4.75891C218.954 4.15642 219.215 3.76349 219.659 3.47535C220.13 3.17847 220.948 3.44042 221.07 3.96432C221.27 4.79384 221.331 5.65828 221.444 6.47033C222.672 6.09486 224.048 5.65828 225.433 5.24789C226.147 5.03832 226.756 5.30028 226.904 5.84164C227.096 6.52272 226.73 6.97677 225.903 7.21252C224.614 7.57925 223.334 7.98965 222.045 8.38257V8.40004ZM207.137 20.9912C207.346 20.6681 207.494 20.4673 207.607 20.249C208.374 18.7122 208.757 17.1143 208.539 15.3679C208.243 13.0104 207.346 10.9934 205.221 9.84077C203.541 8.92394 201.764 8.15555 199.962 7.52686C197.915 6.81959 195.799 6.32189 193.709 5.75433C192.865 5.5273 192.011 5.37013 191.106 5.1693C191.106 5.42252 191.097 5.54476 191.106 5.66701C191.271 7.36969 191.367 9.08111 191.62 10.7663C191.977 13.2287 192.368 15.6998 192.882 18.1272C193.448 20.7903 194.981 22.7375 197.558 23.7853C200.258 24.8855 202.757 24.4577 205.134 22.9034C205.282 22.8074 205.413 22.5018 205.37 22.3446C204.995 21.0698 204.594 19.7949 204.15 18.5463C204.081 18.3455 203.802 18.1446 203.584 18.0835C201.582 17.5509 199.735 17.6644 198.29 19.4107C197.942 19.8299 197.454 20.0743 196.931 19.6552C196.418 19.2448 196.357 18.7471 196.81 18.1621C197.907 16.7476 199.344 15.9442 201.146 15.8307C201.503 15.8045 201.851 15.7434 202.383 15.6736C201.773 15.0449 201.259 14.5734 200.824 14.0495C200.206 13.316 199.405 13.1937 198.621 13.5256C197.654 13.9272 196.757 14.521 195.817 14.9925C195.477 15.1584 195.007 15.3854 194.72 15.2719C193.858 14.9401 193.727 14.1193 194.458 13.5517C195.399 12.8357 196.426 12.242 197.41 11.5958C197.341 11.5522 197.193 11.4387 197.027 11.3688C196.078 10.9235 195.12 10.4956 194.171 10.0503C193.709 9.83204 193.405 9.47404 193.553 8.95013C193.683 8.47862 194.014 8.08569 194.572 8.24286C195.347 8.46116 196.113 8.74057 196.87 9.03745C197.323 9.21209 197.759 9.45657 198.116 9.63121C198.473 9.11604 198.708 8.67072 199.047 8.31272C199.474 7.85867 200.04 7.88486 200.449 8.27779C200.815 8.63579 200.78 9.22955 200.449 9.70979C200.31 9.91062 200.232 10.3559 200.354 10.5044C201.303 11.6308 202.313 12.7135 203.201 13.7002C203.785 12.8532 204.255 12.0499 204.856 11.3601C205.204 10.9497 205.796 10.9846 206.205 11.3776C206.632 11.7792 206.65 12.2944 206.24 12.731C205.056 13.9796 205.004 15.4029 205.587 16.9135C205.97 17.9089 206.406 18.8781 206.806 19.8735C206.937 20.1966 207.024 20.5371 207.163 20.9824L207.137 20.9912Z" fill="white"/>
</g>
<defs>
<clipPath id="clip0_20_127">
<rect width="233" height="40" fill="white"/>
</clipPath>
</defs>
</svg>
