<svg width="337" height="58" viewBox="0 0 337 58" fill="none" xmlns="http://www.w3.org/2000/svg">
<g clip-path="url(#clip0_5_18)">
<path d="M0 32.6147C0 22.4986 7.61987 15.6743 17.3809 15.6743C25.4919 15.6743 29.686 20.1436 31.8397 24.461L24.6103 27.8922C23.5397 25.284 20.7563 23.1316 17.3809 23.1316C12.3052 23.1316 8.5393 27.2591 8.5393 32.6021C8.5393 37.945 12.3052 42.0725 17.3809 42.0725C20.7563 42.0725 23.5397 39.9075 24.6103 37.312L31.8397 40.7431C29.7364 44.9592 25.4919 49.5298 17.3809 49.5298C7.61987 49.5298 0 42.6549 0 32.5894V32.6147Z" fill="#71B18A"/>
<path d="M33.6912 37.084C33.6912 30.4117 38.5276 24.6636 46.5379 24.6636C54.5482 24.6636 59.435 30.4117 59.435 37.084C59.435 43.7564 54.649 49.5551 46.5379 49.5551C38.4268 49.5551 33.6912 43.7564 33.6912 37.084ZM51.7144 37.084C51.7144 33.9441 49.8629 31.3359 46.5379 31.3359C43.2129 31.3359 41.4622 33.9315 41.4622 37.084C41.4622 40.2366 43.2632 42.8828 46.5379 42.8828C49.8126 42.8828 51.7144 40.2873 51.7144 37.084Z" fill="#71B18A"/>
<path d="M63.3772 48.96V25.246H70.8963V28.2467C72.4581 26.3349 75.443 24.6636 78.2643 24.6636V31.9817C77.8235 31.8297 77.1937 31.7411 76.4128 31.7411C74.4606 31.7411 71.8661 32.5767 70.8963 33.9568V48.9727H63.3772V48.96Z" fill="#71B18A"/>
<path d="M89.2092 58H81.6901V25.2587H89.2092V28.0061C91.0607 25.7525 93.5041 24.6636 96.1867 24.6636C102.094 24.6636 106.54 29.0823 106.54 37.084C106.54 45.0858 102.094 49.5551 96.1867 49.5551C93.5544 49.5551 91.1614 48.5296 89.2092 46.162V57.9873V58ZM93.7056 31.3486C92.0934 31.3486 90.1412 32.2349 89.2092 33.5136V40.7304C90.1412 41.9585 92.0934 42.8954 93.7056 42.8954C96.6402 42.8954 98.882 40.6798 98.882 37.0967C98.882 33.5136 96.6402 31.3486 93.7056 31.3486Z" fill="#71B18A"/>
<path d="M108.945 37.084C108.945 30.4117 113.782 24.6636 121.792 24.6636C129.802 24.6636 134.689 30.4117 134.689 37.084C134.689 43.7564 129.903 49.5551 121.792 49.5551C113.681 49.5551 108.945 43.7564 108.945 37.084ZM126.969 37.084C126.969 33.9441 125.117 31.3359 121.792 31.3359C118.467 31.3359 116.716 33.9315 116.716 37.084C116.716 40.2366 118.517 42.8828 121.792 42.8828C125.067 42.8828 126.969 40.2873 126.969 37.084Z" fill="#71B18A"/>
<path d="M151.327 48.9601V16.2188H175.207V23.3342H159.728V28.7785H174.867V35.9446H159.728V48.9474H151.327V48.9601Z" fill="#71B18A"/>
<path d="M179.552 48.96V25.246H187.071V28.2467C188.633 26.3349 191.618 24.6636 194.439 24.6636V31.9817C193.998 31.8297 193.368 31.7411 192.588 31.7411C190.635 31.7411 188.041 32.5767 187.071 33.9568V48.9727H179.552V48.96Z" fill="#71B18A"/>
<path d="M208.848 24.6636C215.825 24.6636 220.913 29.8167 220.913 37.869V39.4897H204.112C204.553 41.6927 206.606 43.7058 210.12 43.7058C212.223 43.7058 214.566 42.8701 215.888 41.6927L219.062 46.4026C216.719 48.5169 212.815 49.5425 209.2 49.5425C201.92 49.5425 196.303 44.7819 196.303 37.0714C196.303 30.1965 201.48 24.651 208.848 24.651V24.6636ZM204.011 34.5772H213.734C213.533 32.9059 212.324 30.5003 208.848 30.5003C205.573 30.5003 204.301 32.8553 204.011 34.5772Z" fill="#71B18A"/>
<path d="M225.737 40.7178C227.501 42.2877 231.254 43.8577 234.037 43.8577C236.279 43.8577 237.211 43.1234 237.211 42.0852C237.211 40.857 235.599 40.4139 233.156 40.0214C229.15 39.3377 223.483 38.5021 223.483 32.4628C223.483 28.2847 227.047 24.651 233.596 24.651C237.551 24.651 240.927 25.9297 243.458 27.7909L240.574 32.8046C239.163 31.4246 236.468 30.2091 233.634 30.2091C231.871 30.2091 230.649 30.7916 230.649 31.8298C230.649 32.868 231.921 33.2984 234.415 33.7416C238.42 34.4253 244.378 35.4128 244.378 41.6927C244.378 46.2126 240.423 49.5425 233.634 49.5425C229.44 49.5425 225.082 48.1244 222.601 45.9088L225.725 40.7051L225.737 40.7178Z" fill="#71B18A"/>
<path d="M264.265 48.9601V35.1723C264.265 32.2729 262.753 31.3486 260.36 31.3486C258.169 31.3486 256.695 32.5767 255.814 33.6529V48.9727H248.295V16.2188H255.814V28.1454C257.224 26.4742 260.008 24.6636 263.975 24.6636C269.341 24.6636 271.784 27.7023 271.784 32.0703V48.9601H264.265Z" fill="#71B18A"/>
<path d="M310.563 41.1102C305.777 40.9963 301.76 39.5403 298.22 36.7042C297.906 36.451 297.2 36.3497 296.873 36.527C294.858 37.6031 292.691 38.1729 290.475 38.2868C287.931 38.4261 285.5 37.6538 283.22 36.4636C278.736 34.134 276.759 30.0825 275.764 25.4233C275.071 22.1567 274.555 18.8522 274.089 15.5477C273.837 13.7245 273.824 11.8633 273.711 10.0275C273.623 8.63479 273.535 7.24208 273.497 5.83671C273.472 4.73521 274.378 4.01353 275.436 4.27941C280.437 5.55817 285.437 6.82427 290.424 8.19166C291.898 8.59681 293.296 9.31848 294.744 9.83759C295.021 9.93887 295.563 9.87557 295.727 9.67299C299.417 5.39358 304.266 3.12726 309.556 1.68391C313.725 0.544419 317.969 -0.0506479 322.302 0.012657C324.745 0.05064 327.189 -0.0759699 329.632 0.037979C331.698 0.139267 333.738 0.493775 335.791 0.746994C336.748 0.860943 337.088 1.50665 336.962 2.3676C336.597 4.86182 336.295 7.38135 335.766 9.83759C335.161 12.6863 334.468 15.535 333.587 18.3078C331.647 24.3471 328.901 29.9686 324.456 34.6151C321.319 37.8943 317.541 40.0087 313.082 40.8443C312.163 41.0089 311.231 41.0216 310.563 41.0849V41.1102ZM321.156 12.1799C321.156 12.2812 321.156 12.3698 321.143 12.4711C321.37 12.5597 321.597 12.623 321.811 12.7243C323.612 13.6232 325.438 14.4715 327.201 15.4337C327.932 15.8389 328.07 16.9024 327.642 17.5101C327.189 18.1559 326.357 18.2065 325.589 17.814C323.876 16.9404 322.151 16.0541 320.362 15.3578C317.163 14.1043 314.48 15.1425 312.1 17.5608C312.402 17.6621 312.642 17.7507 312.893 17.8267C316.093 18.7129 318.549 20.6501 320.488 23.3089C320.967 23.9672 320.79 24.6763 320.211 25.1954C319.632 25.7018 318.977 25.6512 318.385 25.17C318.133 24.9675 317.931 24.6889 317.717 24.4357C315.702 22.0428 313.221 20.4981 310.06 20.2069C308.674 20.0803 304.984 23.0557 304.707 24.5623C304.908 24.5876 305.11 24.613 305.311 24.6509C305.513 24.6889 305.714 24.7902 305.916 24.8155C309.442 25.17 312.163 26.9299 314.317 29.69C314.883 30.4117 314.82 31.3739 314.254 31.8297C313.611 32.3488 312.679 32.2096 312.1 31.4372C310.324 29.057 307.893 27.8795 305.022 27.525C304.417 27.449 304.102 27.601 303.8 28.2467C303.07 29.8293 302.163 31.3359 301.268 32.8426C300.928 33.425 300.425 33.9061 299.971 34.4505C302.641 36.6915 305.651 37.945 308.989 38.1855C313.259 38.4894 317.088 37.16 320.425 34.4759C324.115 31.5005 326.647 27.6389 328.473 23.3342C329.859 20.0677 331.03 16.6745 331.987 13.2561C332.881 10.0528 333.36 6.73564 334.028 3.41846C332.39 3.25387 330.967 3.01331 329.531 2.97533C326.836 2.91202 324.141 2.83606 321.445 2.98799C318.599 3.15258 315.753 3.4058 312.944 3.91224C308.51 4.70988 304.316 6.21654 300.676 8.9893C299.732 9.71098 298.901 10.5846 297.918 11.4709C301.483 13.4966 303.334 16.5226 304.291 20.2956C304.656 19.9537 304.908 19.7385 305.135 19.5106C305.374 19.2827 305.588 19.0168 305.84 18.7889C308.107 16.7885 308.687 13.5599 307.327 10.9138C307.15 10.5593 307.138 9.93887 307.327 9.60969C307.956 8.52084 309.115 8.5335 309.833 9.5717C310.841 11.0151 311.143 12.6736 311.042 14.5348C312.188 13.8131 313.246 13.1548 314.279 12.4837C315.803 11.4835 316.634 9.9642 317.226 8.3056C317.377 7.90045 317.302 7.30539 317.1 6.90024C316.685 6.02663 317.062 5.45688 317.705 5.03907C318.385 4.6086 319.569 4.98843 319.745 5.74809C320.035 6.95088 320.123 8.20432 320.287 9.38179C322.063 8.83737 324.053 8.20432 326.055 7.60925C327.088 7.30539 327.97 7.68522 328.184 8.4702C328.461 9.45776 327.932 10.1161 326.735 10.458C324.871 10.9897 323.02 11.5848 321.156 12.1545V12.1799ZM299.593 30.437C299.896 29.9686 300.11 29.6774 300.273 29.3608C301.382 27.1325 301.936 24.8155 301.621 22.2833C301.193 18.8649 299.896 15.9402 296.822 14.2689C294.392 12.9395 291.822 11.8254 289.215 10.9138C286.255 9.88823 283.195 9.16655 280.172 8.34359C278.95 8.0144 277.716 7.7865 276.406 7.4953C276.406 7.86247 276.394 8.03972 276.406 8.21698C276.646 10.6859 276.784 13.1674 277.149 15.611C277.666 19.1814 278.232 22.7645 278.976 26.2842C279.794 30.1458 282.011 32.9692 285.739 34.4885C289.643 36.0838 293.258 35.4634 296.697 33.2098C296.911 33.0705 297.1 32.6274 297.037 32.3995C296.495 30.551 295.916 28.7025 295.273 26.8919C295.173 26.6007 294.769 26.3095 294.455 26.2209C291.558 25.4486 288.888 25.6132 286.797 28.1454C286.293 28.7531 285.588 29.1076 284.832 28.4999C284.089 27.9048 284.001 27.1831 284.656 26.3349C286.243 24.2838 288.321 23.119 290.928 22.9544C291.444 22.9164 291.948 22.8278 292.717 22.7265C291.835 21.8149 291.092 21.1312 290.462 20.3715C289.568 19.308 288.409 19.1308 287.276 19.6119C285.878 20.1943 284.58 21.0552 283.22 21.7389C282.729 21.9795 282.049 22.3087 281.633 22.1441C280.386 21.6629 280.197 20.4728 281.255 19.6499C282.615 18.6117 284.102 17.7507 285.525 16.8138C285.424 16.7505 285.21 16.5859 284.971 16.4846C283.598 15.8389 282.212 15.2185 280.84 14.5728C280.172 14.2563 279.731 13.7372 279.945 12.9775C280.134 12.2938 280.613 11.7241 281.419 11.952C282.54 12.2685 283.648 12.6736 284.744 13.1041C285.399 13.3573 286.029 13.7118 286.545 13.9651C287.061 13.2181 287.402 12.5724 287.893 12.0533C288.51 11.3949 289.329 11.4329 289.92 12.0026C290.449 12.5217 290.399 13.3827 289.92 14.079C289.719 14.3702 289.606 15.0159 289.782 15.2312C291.155 16.8644 292.616 18.4344 293.9 19.8651C294.744 18.637 295.424 17.4722 296.293 16.4719C296.797 15.8769 297.654 15.9275 298.246 16.4973C298.863 17.0797 298.888 17.8267 298.296 18.4597C296.583 20.2702 296.508 22.334 297.351 24.5243C297.906 25.9677 298.535 27.3731 299.115 28.8164C299.304 29.2849 299.43 29.7786 299.631 30.4244L299.593 30.437Z" fill="#71B18A"/>
</g>
<defs>
<clipPath id="clip0_5_18">
<rect width="337" height="58" fill="white"/>
</clipPath>
</defs>
</svg>
